<score-partwise version="4.0.3">
  <movement-title>Alle meine Entcben</movement-title>
  <identification>
    <rights>KleineMusiker.de</rights>
    <encoding>
      <software>Audiveris 5.6.1</software>
      <supports type="yes" element="print" attribute="new-system" value="yes" />
      <supports type="yes" element="print" attribute="new-page" value="yes" />
      <supports type="yes" element="accidental" />
      <supports type="yes" element="beam" />
      <supports type="yes" element="stem" />
      <software>ProxyMusic 4.0.3</software>
      <encoding-date>2025-07-02</encoding-date>
    </encoding>
    <source>C:\Uni\OMR_Project\alex\PDF\AME.pdf</source>
    <miscellaneous>
      <miscellaneous-field name="source-file">C:\Uni\OMR_Project\alex\PDF\AME.pdf</miscellaneous-field>
      <miscellaneous-field name="source-sheet-1">1 2 3</miscellaneous-field>
    </miscellaneous>
  </identification>
  <defaults>
    <scaling>
      <millimeters>11.5147</millimeters>
      <tenths>40</tenths>
    </scaling>
    <page-layout>
      <page-height>1116</page-height>
      <page-width>822</page-width>
      <page-margins type="both">
        <left-margin>80</left-margin>
        <right-margin>80</right-margin>
        <top-margin>80</top-margin>
        <bottom-margin>80</bottom-margin>
      </page-margins>
    </page-layout>
    <lyric-font font-family="Sans Serif" font-size="10" />
  </defaults>
  <credit page="1">
    <credit-words default-x="168" default-y="920" font-family="serif" font-size="49" font-weight="bold">Alle meine Entcben</credit-words>
  </credit>
  <credit page="1">
    <credit-words default-x="324" default-y="90" font-family="serif" font-size="19" font-weight="bold">KleineMusiker.de</credit-words>
  </credit>
  <part-list>
    <score-part id="P1">
      <part-name>Voice</part-name>
      <part-abbreviation>Voice</part-abbreviation>
      <score-instrument id="P1-I1">
        <instrument-name>Voice Oohs</instrument-name>
      </score-instrument>
      <midi-instrument id="P1-I1">
        <midi-channel>1</midi-channel>
        <midi-program>54</midi-program>
        <volume>78</volume>
      </midi-instrument>
    </score-part>
  </part-list>
  
  <part id="P1">
    
    <measure number="1" width="185">
      <print>
        <system-layout>
          <system-margins>
            <left-margin>41</left-margin>
            <right-margin>36</right-margin>
          </system-margins>
          <top-system-distance>224</top-system-distance>
        </system-layout>
        <measure-numbering>system</measure-numbering>
      </print>
      <attributes>
        <divisions>1</divisions>
        <time>
          <beats>4</beats>
          <beat-type>4</beat-type>
        </time>
        <clef>
          <sign>G</sign>
          <line>2</line>
        </clef>
        <staff-details print-object="yes" />
      </attributes>
      <harmony default-y="19" relative-x="0" font-size="12.719999" placement="above">
        <root>
          <root-step>C</root-step>
        </root>
        <kind text="">major</kind>
      </harmony>
      <note default-x="55">
        <pitch>
          <step>C</step>
          <octave>4</octave>
        </pitch>
        <duration>1</duration>
        <voice>1</voice>
        <type>quarter</type>
        <stem default-y="-22">up</stem>
        <lyric number="1" placement="below" default-y="-72">
          <syllabic>single</syllabic>
          <text>A1</text>
        </lyric>
      </note>
      <note default-x="87">
        <pitch>
          <step>D</step>
          <octave>4</octave>
        </pitch>
        <duration>1</duration>
        <voice>1</voice>
        <type>quarter</type>
        <stem default-y="-17">up</stem>
        <lyric number="1" placement="below" default-y="-72">
          <syllabic>single</syllabic>
          <text>le</text>
        </lyric>
      </note>
      <note default-x="119">
        <pitch>
          <step>E</step>
          <octave>4</octave>
        </pitch>
        <duration>1</duration>
        <voice>1</voice>
        <type>quarter</type>
        <stem default-y="-12">up</stem>
        <lyric number="1" placement="below" default-y="-72">
          <syllabic>single</syllabic>
          <text>mei</text>
        </lyric>
      </note>
      <note default-x="152">
        <pitch>
          <step>F</step>
          <octave>4</octave>
        </pitch>
        <duration>1</duration>
        <voice>1</voice>
        <type>quarter</type>
        <stem default-y="-7">up</stem>
        <lyric number="1" placement="below" default-y="-72">
          <syllabic>single</syllabic>
          <text>ne</text>
        </lyric>
      </note>
    </measure>
    
    <measure number="2" width="117">
      <note default-x="14">
        <pitch>
          <step>G</step>
          <octave>4</octave>
        </pitch>
        <duration>2</duration>
        <voice>1</voice>
        <type>half</type>
        <stem default-y="-3">up</stem>
        <lyric number="1" placement="below" default-y="-72">
          <syllabic>single</syllabic>
          <text>Ent</text>
        </lyric>
      </note>
      <note default-x="65">
        <pitch>
          <step>G</step>
          <octave>4</octave>
        </pitch>
        <duration>2</duration>
        <voice>1</voice>
        <type>half</type>
        <stem default-y="-3">up</stem>
        <lyric number="1" placement="below" default-y="-72">
          <syllabic>single</syllabic>
          <text>chen</text>
        </lyric>
      </note>
    </measure>
    
    <measure number="3" width="203">
      <harmony default-y="19" relative-x="0" font-size="12.719999" placement="above">
        <root>
          <root-step>F</root-step>
        </root>
        <kind text="">major</kind>
      </harmony>
      <note default-x="27">
        <pitch>
          <step>A</step>
          <octave>4</octave>
        </pitch>
        <duration>1</duration>
        <voice>1</voice>
        <type>quarter</type>
        <stem default-y="1">up</stem>
        <lyric number="1" placement="below" default-y="-73">
          <syllabic>single</syllabic>
          <text>schwim</text>
        </lyric>
      </note>
      <note default-x="71">
        <pitch>
          <step>A</step>
          <octave>4</octave>
        </pitch>
        <duration>1</duration>
        <voice>1</voice>
        <type>quarter</type>
        <stem default-y="1">up</stem>
        <lyric number="1" placement="below" default-y="-73">
          <syllabic>single</syllabic>
          <text>men</text>
        </lyric>
      </note>
      <note default-x="115">
        <pitch>
          <step>A</step>
          <octave>4</octave>
        </pitch>
        <duration>1</duration>
        <voice>1</voice>
        <type>quarter</type>
        <stem default-y="1">up</stem>
        <lyric number="1" placement="below" default-y="-73">
          <syllabic>single</syllabic>
          <text>auf</text>
        </lyric>
      </note>
      <note default-x="159">
        <pitch>
          <step>A</step>
          <octave>4</octave>
        </pitch>
        <duration>1</duration>
        <voice>1</voice>
        <type>quarter</type>
        <stem default-y="1">up</stem>
        <lyric number="1" placement="below" default-y="-73">
          <syllabic>single</syllabic>
          <text>dem</text>
        </lyric>
      </note>
    </measure>
    
    <measure number="4" width="222">
      <print new-system="yes">
        <system-layout>
          <system-margins>
            <left-margin>41</left-margin>
            <right-margin>36</right-margin>
          </system-margins>
          <system-distance>95</system-distance>
        </system-layout>
      </print>
      <attributes>
        <staff-details print-object="yes" />
      </attributes>
      <harmony default-y="20" relative-x="0" font-size="12.719999" placement="above">
        <root>
          <root-step>F</root-step>
        </root>
        <kind text="">major</kind>
      </harmony>
      <note default-x="46">
        <pitch>
          <step>A</step>
          <octave>4</octave>
        </pitch>
        <duration>1</duration>
        <voice>1</voice>
        <type>quarter</type>
        <stem default-y="1">up</stem>
        <lyric number="1" placement="below" default-y="-63">
          <syllabic>single</syllabic>
          <text>schwim</text>
        </lyric>
      </note>
      <note default-x="90">
        <pitch>
          <step>A</step>
          <octave>4</octave>
        </pitch>
        <duration>1</duration>
        <voice>1</voice>
        <type>quarter</type>
        <stem default-y="1">up</stem>
        <lyric number="1" placement="below" default-y="-63">
          <syllabic>single</syllabic>
          <text>men</text>
        </lyric>
      </note>
      <note default-x="134">
        <pitch>
          <step>A</step>
          <octave>4</octave>
        </pitch>
        <duration>1</duration>
        <voice>1</voice>
        <type>quarter</type>
        <stem default-y="1">up</stem>
        <lyric number="1" placement="below" default-y="-63">
          <syllabic>single</syllabic>
          <text>auf</text>
        </lyric>
      </note>
      <note default-x="178">
        <pitch>
          <step>A</step>
          <octave>4</octave>
        </pitch>
        <duration>1</duration>
        <voice>1</voice>
        <type>quarter</type>
        <stem default-y="1">up</stem>
        <lyric number="1" placement="below" default-y="-63">
          <syllabic>single</syllabic>
          <text>dem</text>
        </lyric>
      </note>
    </measure>
    
    <measure number="5" width="79" />
    
    <measure number="6" width="171">
      <harmony default-y="19" relative-x="0" font-size="12.719999" placement="above">
        <root>
          <root-step>G</root-step>
        </root>
        <kind text="">major</kind>
      </harmony>
      <note default-x="19">
        <pitch>
          <step>F</step>
          <octave>4</octave>
        </pitch>
        <duration>1</duration>
        <voice>1</voice>
        <type>quarter</type>
        <stem default-y="-7">up</stem>
        <lyric number="1" placement="below" default-y="-63">
          <syllabic>single</syllabic>
          <text>Ktipf</text>
        </lyric>
      </note>
      <note default-x="57">
        <pitch>
          <step>F</step>
          <octave>4</octave>
        </pitch>
        <duration>1</duration>
        <voice>1</voice>
        <type>quarter</type>
        <stem default-y="-7">up</stem>
        <lyric number="1" placement="below" default-y="-63">
          <syllabic>single</syllabic>
          <text>chen</text>
        </lyric>
      </note>
      <note default-x="95">
        <pitch>
          <step>F</step>
          <octave>4</octave>
        </pitch>
        <duration>1</duration>
        <voice>1</voice>
        <type>quarter</type>
        <stem default-y="-7">up</stem>
        <lyric number="1" placement="below" default-y="-63">
          <syllabic>single</syllabic>
          <text>in</text>
        </lyric>
      </note>
      <note default-x="132">
        <pitch>
          <step>F</step>
          <octave>4</octave>
        </pitch>
        <duration>1</duration>
        <voice>1</voice>
        <type>quarter</type>
        <stem default-y="-7">up</stem>
        <lyric number="1" placement="below" default-y="-63">
          <syllabic>single</syllabic>
          <text>das</text>
        </lyric>
      </note>
    </measure>
    
    <measure number="7" width="112">
      <harmony default-y="19" relative-x="0" font-size="12.719999" placement="above">
        <root>
          <root-step>C</root-step>
        </root>
        <kind text="">major</kind>
      </harmony>
      <note default-x="17">
        <pitch>
          <step>E</step>
          <octave>4</octave>
        </pitch>
        <duration>2</duration>
        <voice>1</voice>
        <type>half</type>
        <stem default-y="-12">up</stem>
        <lyric number="1" placement="below" default-y="-64">
          <syllabic>single</syllabic>
          <text>Was</text>
        </lyric>
      </note>
      <note default-x="64">
        <pitch>
          <step>E</step>
          <octave>4</octave>
        </pitch>
        <duration>2</duration>
        <voice>1</voice>
        <type>half</type>
        <stem default-y="-12">up</stem>
        <lyric number="1" placement="below" default-y="-64">
          <syllabic>single</syllabic>
          <text>ser,</text>
        </lyric>
      </note>
    </measure>
    
    <measure number="8" width="351">
      <print new-system="yes">
        <system-layout>
          <system-margins>
            <left-margin>41</left-margin>
            <right-margin>38</right-margin>
          </system-margins>
          <system-distance>95</system-distance>
        </system-layout>
      </print>
      <attributes>
        <staff-details print-object="yes" />
      </attributes>
      <harmony default-y="19" relative-x="0" font-size="13.2" placement="above">
        <root>
          <root-step>G</root-step>
        </root>
        <kind text="">major</kind>
      </harmony>
      <note default-x="46">
        <pitch>
          <step>G</step>
          <octave>4</octave>
        </pitch>
        <duration>1</duration>
        <voice>1</voice>
        <type>quarter</type>
        <stem default-y="-3">up</stem>
        <lyric number="1" placement="below" default-y="-72">
          <syllabic>single</syllabic>
          <text>Schwéinz</text>
        </lyric>
      </note>
      <note default-x="122">
        <pitch>
          <step>G</step>
          <octave>4</octave>
        </pitch>
        <duration>1</duration>
        <voice>1</voice>
        <type>quarter</type>
        <stem default-y="-3">up</stem>
        <lyric number="1" placement="below" default-y="-72">
          <syllabic>single</syllabic>
          <text>Chen</text>
        </lyric>
      </note>
      <note default-x="198">
        <pitch>
          <step>G</step>
          <octave>4</octave>
        </pitch>
        <duration>1</duration>
        <voice>1</voice>
        <type>quarter</type>
        <stem default-y="-3">up</stem>
        <lyric number="1" placement="below" default-y="-72">
          <syllabic>single</syllabic>
          <text>in</text>
        </lyric>
      </note>
      <note default-x="274">
        <pitch>
          <step>G</step>
          <octave>4</octave>
        </pitch>
        <duration>1</duration>
        <voice>1</voice>
        <type>quarter</type>
        <stem default-y="-3">up</stem>
        <lyric number="1" placement="below" default-y="-72">
          <syllabic>single</syllabic>
          <text>die</text>
        </lyric>
      </note>
    </measure>
  </part>
</score-partwise>